<?xml version="1.0" standalone="no"?>
<!DOCTYPE svg PUBLIC "-//W3C//DTD SVG 1.1//EN" "http://www.w3.org/Graphics/SVG/1.1/DTD/svg11.dtd"><svg t="1586491775847" class="icon" viewBox="0 0 1024 1024" version="1.1"
    xmlns="http://www.w3.org/2000/svg" p-id="646" width="200" height="200" xmlns:xlink="http://www.w3.org/1999/xlink">
    <defs>
        <style type="text/css"></style>
    </defs>
    <path
        d="M225.28 358.4v102.4h204.8V256h-92.16L506.88 87.79776 675.84 256H563.2v204.8h204.8V348.16l168.21248 168.96L778.24 665.6v-92.16H573.44v204.8h102.4L503.47008 967.68 327.68 778.24h102.4V573.44H225.28v102.4L67.31776 517.12z"
        p-id="647" data-spm-anchor-id="a313x.7781069.0.i3" class="selected" fill="#2c2c2c"></path>
    <path
        d="M503.5008 970.12736L315.94496 768H430.08V573.44H235.52v114.80064L65.20832 517.12 235.52 345.99936V450.56h194.56V256H325.51936L506.88 75.44832 688.24064 256H573.44v194.56h194.56V335.75936l180.6848 181.48352L778.24 677.43744V573.44H583.68v194.56h103.74144L503.5008 970.12736zM339.41504 778.24l164.02432 176.75264L664.25856 778.24H573.44V563.2h215.04v90.56256l145.50016-136.7552L778.24 360.56064V460.8H563.2V245.76h100.23936L506.88 89.89696 350.32064 245.76H440.32v215.04H225.28v-89.99936L79.65696 517.12 225.28 663.43936V563.2h215.04v215.04h-100.90496z"
        p-id="648"></path>
</svg>
